<mxfile host="app.diagrams.net" agent="Mozilla/5.0 (Windows NT 10.0; Win64; x64) AppleWebKit/537.36 (KHTML, like Gecko) Chrome/128.0.0.0 Safari/537.36" version="24.7.16" pages="2">
  <diagram id="C5RBs43oDa-KdzZeNtuy" name="Page-1">
    <mxGraphModel dx="1500" dy="1965" grid="0" gridSize="10" guides="1" tooltips="1" connect="1" arrows="1" fold="1" page="1" pageScale="1" pageWidth="827" pageHeight="1169" math="0" shadow="0">
      <root>
        <mxCell id="WIyWlLk6GJQsqaUBKTNV-0" />
        <mxCell id="WIyWlLk6GJQsqaUBKTNV-1" parent="WIyWlLk6GJQsqaUBKTNV-0" />
        <mxCell id="kOrsUIQJCxHmHTs_5eMT-13" style="edgeStyle=orthogonalEdgeStyle;rounded=0;orthogonalLoop=1;jettySize=auto;html=1;entryX=0.5;entryY=0;entryDx=0;entryDy=0;" parent="WIyWlLk6GJQsqaUBKTNV-1" source="kOrsUIQJCxHmHTs_5eMT-0" target="kOrsUIQJCxHmHTs_5eMT-1" edge="1">
          <mxGeometry relative="1" as="geometry" />
        </mxCell>
        <mxCell id="kOrsUIQJCxHmHTs_5eMT-0" value="Giao diện đăng nhập, đăng ký" style="ellipse;whiteSpace=wrap;html=1;aspect=fixed;" parent="WIyWlLk6GJQsqaUBKTNV-1" vertex="1">
          <mxGeometry x="200" y="10" width="81" height="81" as="geometry" />
        </mxCell>
        <mxCell id="kOrsUIQJCxHmHTs_5eMT-9" style="edgeStyle=orthogonalEdgeStyle;rounded=0;orthogonalLoop=1;jettySize=auto;html=1;entryX=0.5;entryY=0;entryDx=0;entryDy=0;" parent="WIyWlLk6GJQsqaUBKTNV-1" source="kOrsUIQJCxHmHTs_5eMT-1" target="kOrsUIQJCxHmHTs_5eMT-2" edge="1">
          <mxGeometry relative="1" as="geometry" />
        </mxCell>
        <mxCell id="kOrsUIQJCxHmHTs_5eMT-1" value="Người dùng chọn chức năng đăng ký" style="rounded=1;whiteSpace=wrap;html=1;" parent="WIyWlLk6GJQsqaUBKTNV-1" vertex="1">
          <mxGeometry x="180" y="140" width="120" height="60" as="geometry" />
        </mxCell>
        <mxCell id="pDXvO5JaxAVhMDaiB-b3-5" style="edgeStyle=orthogonalEdgeStyle;rounded=0;orthogonalLoop=1;jettySize=auto;html=1;exitX=0.5;exitY=1;exitDx=0;exitDy=0;entryX=0.5;entryY=0;entryDx=0;entryDy=0;" parent="WIyWlLk6GJQsqaUBKTNV-1" source="kOrsUIQJCxHmHTs_5eMT-2" target="pDXvO5JaxAVhMDaiB-b3-0" edge="1">
          <mxGeometry relative="1" as="geometry" />
        </mxCell>
        <mxCell id="kOrsUIQJCxHmHTs_5eMT-2" value="Hệ thống hiển thị giao diện đăng ký" style="rounded=1;whiteSpace=wrap;html=1;" parent="WIyWlLk6GJQsqaUBKTNV-1" vertex="1">
          <mxGeometry x="155" y="260" width="171" height="58" as="geometry" />
        </mxCell>
        <mxCell id="kOrsUIQJCxHmHTs_5eMT-15" style="edgeStyle=orthogonalEdgeStyle;rounded=0;orthogonalLoop=1;jettySize=auto;html=1;entryX=0.5;entryY=0;entryDx=0;entryDy=0;" parent="WIyWlLk6GJQsqaUBKTNV-1" source="kOrsUIQJCxHmHTs_5eMT-3" target="kOrsUIQJCxHmHTs_5eMT-14" edge="1">
          <mxGeometry relative="1" as="geometry" />
        </mxCell>
        <mxCell id="pDXvO5JaxAVhMDaiB-b3-12" style="edgeStyle=orthogonalEdgeStyle;rounded=0;orthogonalLoop=1;jettySize=auto;html=1;exitX=0;exitY=0.5;exitDx=0;exitDy=0;entryX=0.5;entryY=1;entryDx=0;entryDy=0;" parent="WIyWlLk6GJQsqaUBKTNV-1" source="kOrsUIQJCxHmHTs_5eMT-3" target="kOrsUIQJCxHmHTs_5eMT-5" edge="1">
          <mxGeometry relative="1" as="geometry" />
        </mxCell>
        <mxCell id="kOrsUIQJCxHmHTs_5eMT-3" value="Đăng ký" style="rhombus;whiteSpace=wrap;html=1;" parent="WIyWlLk6GJQsqaUBKTNV-1" vertex="1">
          <mxGeometry x="200" y="445" width="80" height="80" as="geometry" />
        </mxCell>
        <mxCell id="pDXvO5JaxAVhMDaiB-b3-11" style="edgeStyle=orthogonalEdgeStyle;rounded=0;orthogonalLoop=1;jettySize=auto;html=1;exitX=0.5;exitY=0;exitDx=0;exitDy=0;entryX=0;entryY=0.5;entryDx=0;entryDy=0;" parent="WIyWlLk6GJQsqaUBKTNV-1" source="kOrsUIQJCxHmHTs_5eMT-5" target="pDXvO5JaxAVhMDaiB-b3-0" edge="1">
          <mxGeometry relative="1" as="geometry" />
        </mxCell>
        <mxCell id="kOrsUIQJCxHmHTs_5eMT-5" value="Hệ thống báo đăng ký thất bại" style="rounded=1;whiteSpace=wrap;html=1;" parent="WIyWlLk6GJQsqaUBKTNV-1" vertex="1">
          <mxGeometry x="10" y="427" width="140" height="30" as="geometry" />
        </mxCell>
        <mxCell id="kOrsUIQJCxHmHTs_5eMT-24" style="edgeStyle=orthogonalEdgeStyle;rounded=0;orthogonalLoop=1;jettySize=auto;html=1;entryX=1;entryY=0.5;entryDx=0;entryDy=0;exitX=1;exitY=0.5;exitDx=0;exitDy=0;" parent="WIyWlLk6GJQsqaUBKTNV-1" source="kOrsUIQJCxHmHTs_5eMT-14" target="kOrsUIQJCxHmHTs_5eMT-0" edge="1">
          <mxGeometry relative="1" as="geometry">
            <mxPoint x="320" y="515" as="sourcePoint" />
            <mxPoint x="290" y="50" as="targetPoint" />
            <Array as="points">
              <mxPoint x="310" y="603" />
              <mxPoint x="380" y="603" />
              <mxPoint x="380" y="50" />
            </Array>
          </mxGeometry>
        </mxCell>
        <mxCell id="kOrsUIQJCxHmHTs_5eMT-14" value="Hệ thống báo đăng ký thành công" style="rounded=1;whiteSpace=wrap;html=1;" parent="WIyWlLk6GJQsqaUBKTNV-1" vertex="1">
          <mxGeometry x="170" y="585" width="140" height="30" as="geometry" />
        </mxCell>
        <mxCell id="kOrsUIQJCxHmHTs_5eMT-19" value="Thất bại" style="text;html=1;align=center;verticalAlign=middle;whiteSpace=wrap;rounded=0;" parent="WIyWlLk6GJQsqaUBKTNV-1" vertex="1">
          <mxGeometry x="90" y="485" width="60" height="30" as="geometry" />
        </mxCell>
        <mxCell id="kOrsUIQJCxHmHTs_5eMT-21" value="Thành công" style="text;html=1;align=center;verticalAlign=middle;whiteSpace=wrap;rounded=0;" parent="WIyWlLk6GJQsqaUBKTNV-1" vertex="1">
          <mxGeometry x="248" y="532" width="60" height="30" as="geometry" />
        </mxCell>
        <mxCell id="kOrsUIQJCxHmHTs_5eMT-25" style="edgeStyle=orthogonalEdgeStyle;rounded=0;orthogonalLoop=1;jettySize=auto;html=1;entryX=0.5;entryY=0;entryDx=0;entryDy=0;" parent="WIyWlLk6GJQsqaUBKTNV-1" source="kOrsUIQJCxHmHTs_5eMT-26" target="kOrsUIQJCxHmHTs_5eMT-28" edge="1">
          <mxGeometry relative="1" as="geometry" />
        </mxCell>
        <mxCell id="kOrsUIQJCxHmHTs_5eMT-26" value="Giao diện đăng nhập, đăng ký" style="ellipse;whiteSpace=wrap;html=1;aspect=fixed;" parent="WIyWlLk6GJQsqaUBKTNV-1" vertex="1">
          <mxGeometry x="650" y="10" width="80" height="80" as="geometry" />
        </mxCell>
        <mxCell id="kOrsUIQJCxHmHTs_5eMT-27" style="edgeStyle=orthogonalEdgeStyle;rounded=0;orthogonalLoop=1;jettySize=auto;html=1;entryX=0.5;entryY=0;entryDx=0;entryDy=0;" parent="WIyWlLk6GJQsqaUBKTNV-1" source="kOrsUIQJCxHmHTs_5eMT-28" target="kOrsUIQJCxHmHTs_5eMT-30" edge="1">
          <mxGeometry relative="1" as="geometry" />
        </mxCell>
        <mxCell id="kOrsUIQJCxHmHTs_5eMT-28" value="Người dùng chọn chức năng đăng nhập" style="rounded=1;whiteSpace=wrap;html=1;" parent="WIyWlLk6GJQsqaUBKTNV-1" vertex="1">
          <mxGeometry x="630" y="140" width="120" height="60" as="geometry" />
        </mxCell>
        <mxCell id="kOrsUIQJCxHmHTs_5eMT-41" style="edgeStyle=orthogonalEdgeStyle;rounded=0;orthogonalLoop=1;jettySize=auto;html=1;entryX=0.5;entryY=0;entryDx=0;entryDy=0;" parent="WIyWlLk6GJQsqaUBKTNV-1" source="kOrsUIQJCxHmHTs_5eMT-30" target="kOrsUIQJCxHmHTs_5eMT-40" edge="1">
          <mxGeometry relative="1" as="geometry" />
        </mxCell>
        <mxCell id="kOrsUIQJCxHmHTs_5eMT-30" value="Hệ thống hiển thị giao diện đăng nhập" style="rounded=1;whiteSpace=wrap;html=1;" parent="WIyWlLk6GJQsqaUBKTNV-1" vertex="1">
          <mxGeometry x="630" y="240" width="120" height="60" as="geometry" />
        </mxCell>
        <mxCell id="kOrsUIQJCxHmHTs_5eMT-31" style="edgeStyle=orthogonalEdgeStyle;rounded=0;orthogonalLoop=1;jettySize=auto;html=1;entryX=0.5;entryY=1;entryDx=0;entryDy=0;" parent="WIyWlLk6GJQsqaUBKTNV-1" source="kOrsUIQJCxHmHTs_5eMT-33" target="kOrsUIQJCxHmHTs_5eMT-35" edge="1">
          <mxGeometry relative="1" as="geometry" />
        </mxCell>
        <mxCell id="kOrsUIQJCxHmHTs_5eMT-32" style="edgeStyle=orthogonalEdgeStyle;rounded=0;orthogonalLoop=1;jettySize=auto;html=1;entryX=0.5;entryY=0;entryDx=0;entryDy=0;" parent="WIyWlLk6GJQsqaUBKTNV-1" source="kOrsUIQJCxHmHTs_5eMT-33" target="kOrsUIQJCxHmHTs_5eMT-37" edge="1">
          <mxGeometry relative="1" as="geometry" />
        </mxCell>
        <mxCell id="kOrsUIQJCxHmHTs_5eMT-33" value="Đăng ký" style="rhombus;whiteSpace=wrap;html=1;" parent="WIyWlLk6GJQsqaUBKTNV-1" vertex="1">
          <mxGeometry x="650" y="490" width="80" height="80" as="geometry" />
        </mxCell>
        <mxCell id="kOrsUIQJCxHmHTs_5eMT-43" style="edgeStyle=orthogonalEdgeStyle;rounded=0;orthogonalLoop=1;jettySize=auto;html=1;entryX=0;entryY=0.5;entryDx=0;entryDy=0;" parent="WIyWlLk6GJQsqaUBKTNV-1" source="kOrsUIQJCxHmHTs_5eMT-35" target="kOrsUIQJCxHmHTs_5eMT-40" edge="1">
          <mxGeometry relative="1" as="geometry">
            <Array as="points">
              <mxPoint x="530" y="380" />
            </Array>
          </mxGeometry>
        </mxCell>
        <mxCell id="kOrsUIQJCxHmHTs_5eMT-35" value="Hệ thống báo đăng nhập thất bại" style="rounded=1;whiteSpace=wrap;html=1;" parent="WIyWlLk6GJQsqaUBKTNV-1" vertex="1">
          <mxGeometry x="460" y="440" width="140" height="30" as="geometry" />
        </mxCell>
        <mxCell id="kOrsUIQJCxHmHTs_5eMT-36" style="edgeStyle=orthogonalEdgeStyle;rounded=0;orthogonalLoop=1;jettySize=auto;html=1;entryX=1;entryY=0.5;entryDx=0;entryDy=0;exitX=1;exitY=0.5;exitDx=0;exitDy=0;" parent="WIyWlLk6GJQsqaUBKTNV-1" source="kOrsUIQJCxHmHTs_5eMT-37" target="kOrsUIQJCxHmHTs_5eMT-26" edge="1">
          <mxGeometry relative="1" as="geometry">
            <mxPoint x="770" y="515" as="sourcePoint" />
            <mxPoint x="740" y="50" as="targetPoint" />
            <Array as="points">
              <mxPoint x="840" y="665" />
              <mxPoint x="840" y="50" />
            </Array>
          </mxGeometry>
        </mxCell>
        <mxCell id="kOrsUIQJCxHmHTs_5eMT-37" value="Hiển thị giao diện chính" style="rounded=1;whiteSpace=wrap;html=1;" parent="WIyWlLk6GJQsqaUBKTNV-1" vertex="1">
          <mxGeometry x="620" y="650" width="140" height="30" as="geometry" />
        </mxCell>
        <mxCell id="kOrsUIQJCxHmHTs_5eMT-38" value="Thất bại" style="text;html=1;align=center;verticalAlign=middle;whiteSpace=wrap;rounded=0;" parent="WIyWlLk6GJQsqaUBKTNV-1" vertex="1">
          <mxGeometry x="560" y="500" width="60" height="30" as="geometry" />
        </mxCell>
        <mxCell id="kOrsUIQJCxHmHTs_5eMT-39" value="Thành công" style="text;html=1;align=center;verticalAlign=middle;whiteSpace=wrap;rounded=0;" parent="WIyWlLk6GJQsqaUBKTNV-1" vertex="1">
          <mxGeometry x="690" y="580" width="60" height="30" as="geometry" />
        </mxCell>
        <mxCell id="kOrsUIQJCxHmHTs_5eMT-42" style="edgeStyle=orthogonalEdgeStyle;rounded=0;orthogonalLoop=1;jettySize=auto;html=1;entryX=0.5;entryY=0;entryDx=0;entryDy=0;" parent="WIyWlLk6GJQsqaUBKTNV-1" source="kOrsUIQJCxHmHTs_5eMT-40" target="kOrsUIQJCxHmHTs_5eMT-33" edge="1">
          <mxGeometry relative="1" as="geometry" />
        </mxCell>
        <mxCell id="kOrsUIQJCxHmHTs_5eMT-40" value="Người dùng nhập tài khoản và mật khẩu" style="rounded=1;whiteSpace=wrap;html=1;" parent="WIyWlLk6GJQsqaUBKTNV-1" vertex="1">
          <mxGeometry x="630" y="350" width="120" height="60" as="geometry" />
        </mxCell>
        <mxCell id="kOrsUIQJCxHmHTs_5eMT-60" style="edgeStyle=orthogonalEdgeStyle;rounded=0;orthogonalLoop=1;jettySize=auto;html=1;" parent="WIyWlLk6GJQsqaUBKTNV-1" source="kOrsUIQJCxHmHTs_5eMT-44" target="kOrsUIQJCxHmHTs_5eMT-45" edge="1">
          <mxGeometry relative="1" as="geometry" />
        </mxCell>
        <mxCell id="kOrsUIQJCxHmHTs_5eMT-44" value="Giao diện chính" style="ellipse;whiteSpace=wrap;html=1;aspect=fixed;" parent="WIyWlLk6GJQsqaUBKTNV-1" vertex="1">
          <mxGeometry x="1161" y="10" width="80" height="80" as="geometry" />
        </mxCell>
        <mxCell id="kOrsUIQJCxHmHTs_5eMT-61" style="edgeStyle=orthogonalEdgeStyle;rounded=0;orthogonalLoop=1;jettySize=auto;html=1;entryX=0.5;entryY=0;entryDx=0;entryDy=0;" parent="WIyWlLk6GJQsqaUBKTNV-1" source="kOrsUIQJCxHmHTs_5eMT-45" target="kOrsUIQJCxHmHTs_5eMT-46" edge="1">
          <mxGeometry relative="1" as="geometry" />
        </mxCell>
        <mxCell id="kOrsUIQJCxHmHTs_5eMT-45" value="Người dùng chọn chức năng quản lí gói thành viên" style="rounded=1;whiteSpace=wrap;html=1;" parent="WIyWlLk6GJQsqaUBKTNV-1" vertex="1">
          <mxGeometry x="1141" y="140" width="120" height="60" as="geometry" />
        </mxCell>
        <mxCell id="kOrsUIQJCxHmHTs_5eMT-62" style="edgeStyle=orthogonalEdgeStyle;rounded=0;orthogonalLoop=1;jettySize=auto;html=1;" parent="WIyWlLk6GJQsqaUBKTNV-1" source="kOrsUIQJCxHmHTs_5eMT-46" target="kOrsUIQJCxHmHTs_5eMT-47" edge="1">
          <mxGeometry relative="1" as="geometry" />
        </mxCell>
        <mxCell id="kOrsUIQJCxHmHTs_5eMT-46" value="Hệ thống hiển thị giao diện quản lí gói thành viên" style="rounded=1;whiteSpace=wrap;html=1;" parent="WIyWlLk6GJQsqaUBKTNV-1" vertex="1">
          <mxGeometry x="1141" y="245" width="120" height="65" as="geometry" />
        </mxCell>
        <mxCell id="kOrsUIQJCxHmHTs_5eMT-59" style="edgeStyle=orthogonalEdgeStyle;rounded=0;orthogonalLoop=1;jettySize=auto;html=1;entryX=0.5;entryY=0;entryDx=0;entryDy=0;" parent="WIyWlLk6GJQsqaUBKTNV-1" source="kOrsUIQJCxHmHTs_5eMT-47" target="kOrsUIQJCxHmHTs_5eMT-49" edge="1">
          <mxGeometry relative="1" as="geometry" />
        </mxCell>
        <mxCell id="kOrsUIQJCxHmHTs_5eMT-47" value="Các chức năng gia hạn, đăng kí gói, huỷ gói, thông tin chi tiết các gói" style="rounded=1;whiteSpace=wrap;html=1;" parent="WIyWlLk6GJQsqaUBKTNV-1" vertex="1">
          <mxGeometry x="1141" y="350" width="120" height="90" as="geometry" />
        </mxCell>
        <mxCell id="kOrsUIQJCxHmHTs_5eMT-52" value="" style="edgeStyle=orthogonalEdgeStyle;rounded=0;orthogonalLoop=1;jettySize=auto;html=1;" parent="WIyWlLk6GJQsqaUBKTNV-1" source="kOrsUIQJCxHmHTs_5eMT-49" target="kOrsUIQJCxHmHTs_5eMT-51" edge="1">
          <mxGeometry relative="1" as="geometry" />
        </mxCell>
        <mxCell id="kOrsUIQJCxHmHTs_5eMT-54" style="edgeStyle=orthogonalEdgeStyle;rounded=0;orthogonalLoop=1;jettySize=auto;html=1;exitX=0;exitY=0.5;exitDx=0;exitDy=0;entryX=1;entryY=0.5;entryDx=0;entryDy=0;" parent="WIyWlLk6GJQsqaUBKTNV-1" source="kOrsUIQJCxHmHTs_5eMT-49" target="kOrsUIQJCxHmHTs_5eMT-50" edge="1">
          <mxGeometry relative="1" as="geometry" />
        </mxCell>
        <mxCell id="kOrsUIQJCxHmHTs_5eMT-49" value="Đăng ký gói" style="rhombus;whiteSpace=wrap;html=1;" parent="WIyWlLk6GJQsqaUBKTNV-1" vertex="1">
          <mxGeometry x="1161" y="480" width="80" height="80" as="geometry" />
        </mxCell>
        <mxCell id="kOrsUIQJCxHmHTs_5eMT-58" style="edgeStyle=orthogonalEdgeStyle;rounded=0;orthogonalLoop=1;jettySize=auto;html=1;entryX=0;entryY=0.5;entryDx=0;entryDy=0;" parent="WIyWlLk6GJQsqaUBKTNV-1" source="kOrsUIQJCxHmHTs_5eMT-50" target="kOrsUIQJCxHmHTs_5eMT-47" edge="1">
          <mxGeometry relative="1" as="geometry">
            <Array as="points">
              <mxPoint x="1010" y="395" />
            </Array>
          </mxGeometry>
        </mxCell>
        <mxCell id="kOrsUIQJCxHmHTs_5eMT-50" value="Thông báo không thành công" style="rounded=1;whiteSpace=wrap;html=1;" parent="WIyWlLk6GJQsqaUBKTNV-1" vertex="1">
          <mxGeometry x="950" y="490" width="120" height="60" as="geometry" />
        </mxCell>
        <mxCell id="kOrsUIQJCxHmHTs_5eMT-53" style="edgeStyle=orthogonalEdgeStyle;rounded=0;orthogonalLoop=1;jettySize=auto;html=1;entryX=1;entryY=0.5;entryDx=0;entryDy=0;" parent="WIyWlLk6GJQsqaUBKTNV-1" source="kOrsUIQJCxHmHTs_5eMT-51" target="kOrsUIQJCxHmHTs_5eMT-44" edge="1">
          <mxGeometry relative="1" as="geometry">
            <Array as="points">
              <mxPoint x="1370" y="640" />
              <mxPoint x="1370" y="50" />
            </Array>
          </mxGeometry>
        </mxCell>
        <mxCell id="kOrsUIQJCxHmHTs_5eMT-51" value="Hệ thống thông báo đăng ký gói thành công" style="rounded=1;whiteSpace=wrap;html=1;" parent="WIyWlLk6GJQsqaUBKTNV-1" vertex="1">
          <mxGeometry x="1141" y="610" width="120" height="60" as="geometry" />
        </mxCell>
        <mxCell id="kOrsUIQJCxHmHTs_5eMT-55" value="Thất bại" style="text;html=1;align=center;verticalAlign=middle;whiteSpace=wrap;rounded=0;" parent="WIyWlLk6GJQsqaUBKTNV-1" vertex="1">
          <mxGeometry x="1090" y="480" width="60" height="30" as="geometry" />
        </mxCell>
        <mxCell id="kOrsUIQJCxHmHTs_5eMT-78" style="edgeStyle=orthogonalEdgeStyle;rounded=0;orthogonalLoop=1;jettySize=auto;html=1;" parent="WIyWlLk6GJQsqaUBKTNV-1" source="kOrsUIQJCxHmHTs_5eMT-79" target="kOrsUIQJCxHmHTs_5eMT-81" edge="1">
          <mxGeometry relative="1" as="geometry" />
        </mxCell>
        <mxCell id="kOrsUIQJCxHmHTs_5eMT-79" value="Giao diện chính" style="ellipse;whiteSpace=wrap;html=1;aspect=fixed;" parent="WIyWlLk6GJQsqaUBKTNV-1" vertex="1">
          <mxGeometry x="1821" y="-20" width="80" height="80" as="geometry" />
        </mxCell>
        <mxCell id="kOrsUIQJCxHmHTs_5eMT-80" style="edgeStyle=orthogonalEdgeStyle;rounded=0;orthogonalLoop=1;jettySize=auto;html=1;entryX=0.5;entryY=0;entryDx=0;entryDy=0;" parent="WIyWlLk6GJQsqaUBKTNV-1" source="kOrsUIQJCxHmHTs_5eMT-81" target="kOrsUIQJCxHmHTs_5eMT-83" edge="1">
          <mxGeometry relative="1" as="geometry" />
        </mxCell>
        <mxCell id="kOrsUIQJCxHmHTs_5eMT-81" value="Người dùng chọn chức năng phân tích da" style="rounded=1;whiteSpace=wrap;html=1;" parent="WIyWlLk6GJQsqaUBKTNV-1" vertex="1">
          <mxGeometry x="1801" y="110" width="120" height="60" as="geometry" />
        </mxCell>
        <mxCell id="kOrsUIQJCxHmHTs_5eMT-82" style="edgeStyle=orthogonalEdgeStyle;rounded=0;orthogonalLoop=1;jettySize=auto;html=1;" parent="WIyWlLk6GJQsqaUBKTNV-1" source="kOrsUIQJCxHmHTs_5eMT-83" target="kOrsUIQJCxHmHTs_5eMT-85" edge="1">
          <mxGeometry relative="1" as="geometry" />
        </mxCell>
        <mxCell id="kOrsUIQJCxHmHTs_5eMT-113" style="edgeStyle=orthogonalEdgeStyle;rounded=0;orthogonalLoop=1;jettySize=auto;html=1;entryX=0.5;entryY=0;entryDx=0;entryDy=0;" parent="WIyWlLk6GJQsqaUBKTNV-1" source="kOrsUIQJCxHmHTs_5eMT-83" target="kOrsUIQJCxHmHTs_5eMT-94" edge="1">
          <mxGeometry relative="1" as="geometry" />
        </mxCell>
        <mxCell id="kOrsUIQJCxHmHTs_5eMT-83" value="Hệ thống hiển thị giao diện phân tích da" style="rounded=1;whiteSpace=wrap;html=1;" parent="WIyWlLk6GJQsqaUBKTNV-1" vertex="1">
          <mxGeometry x="1801" y="215" width="120" height="65" as="geometry" />
        </mxCell>
        <mxCell id="kOrsUIQJCxHmHTs_5eMT-103" style="edgeStyle=orthogonalEdgeStyle;rounded=0;orthogonalLoop=1;jettySize=auto;html=1;" parent="WIyWlLk6GJQsqaUBKTNV-1" source="kOrsUIQJCxHmHTs_5eMT-85" target="kOrsUIQJCxHmHTs_5eMT-102" edge="1">
          <mxGeometry relative="1" as="geometry" />
        </mxCell>
        <mxCell id="kOrsUIQJCxHmHTs_5eMT-85" value="Người dùng chọn phân tích qua hình ảnh" style="rounded=1;whiteSpace=wrap;html=1;" parent="WIyWlLk6GJQsqaUBKTNV-1" vertex="1">
          <mxGeometry x="1690" y="390" width="120" height="70" as="geometry" />
        </mxCell>
        <mxCell id="kOrsUIQJCxHmHTs_5eMT-91" style="edgeStyle=orthogonalEdgeStyle;rounded=0;orthogonalLoop=1;jettySize=auto;html=1;entryX=1;entryY=0.5;entryDx=0;entryDy=0;" parent="WIyWlLk6GJQsqaUBKTNV-1" source="kOrsUIQJCxHmHTs_5eMT-92" target="kOrsUIQJCxHmHTs_5eMT-79" edge="1">
          <mxGeometry relative="1" as="geometry">
            <Array as="points">
              <mxPoint x="2140" y="870" />
              <mxPoint x="2140" y="20" />
            </Array>
          </mxGeometry>
        </mxCell>
        <mxCell id="kOrsUIQJCxHmHTs_5eMT-92" value="Hệ thống phân tích và trả về kết quả" style="rounded=1;whiteSpace=wrap;html=1;" parent="WIyWlLk6GJQsqaUBKTNV-1" vertex="1">
          <mxGeometry x="1801" y="840" width="120" height="60" as="geometry" />
        </mxCell>
        <mxCell id="kOrsUIQJCxHmHTs_5eMT-111" style="edgeStyle=orthogonalEdgeStyle;rounded=0;orthogonalLoop=1;jettySize=auto;html=1;entryX=0.5;entryY=0;entryDx=0;entryDy=0;" parent="WIyWlLk6GJQsqaUBKTNV-1" source="kOrsUIQJCxHmHTs_5eMT-94" target="kOrsUIQJCxHmHTs_5eMT-110" edge="1">
          <mxGeometry relative="1" as="geometry" />
        </mxCell>
        <mxCell id="kOrsUIQJCxHmHTs_5eMT-94" value="Người dùng chọn phân tích qua khảo sát" style="rounded=1;whiteSpace=wrap;html=1;" parent="WIyWlLk6GJQsqaUBKTNV-1" vertex="1">
          <mxGeometry x="1910" y="390" width="120" height="70" as="geometry" />
        </mxCell>
        <mxCell id="kOrsUIQJCxHmHTs_5eMT-105" style="edgeStyle=orthogonalEdgeStyle;rounded=0;orthogonalLoop=1;jettySize=auto;html=1;exitX=0;exitY=0.5;exitDx=0;exitDy=0;entryX=1;entryY=0.5;entryDx=0;entryDy=0;" parent="WIyWlLk6GJQsqaUBKTNV-1" source="kOrsUIQJCxHmHTs_5eMT-102" target="kOrsUIQJCxHmHTs_5eMT-104" edge="1">
          <mxGeometry relative="1" as="geometry" />
        </mxCell>
        <mxCell id="kOrsUIQJCxHmHTs_5eMT-109" style="edgeStyle=orthogonalEdgeStyle;rounded=0;orthogonalLoop=1;jettySize=auto;html=1;" parent="WIyWlLk6GJQsqaUBKTNV-1" source="kOrsUIQJCxHmHTs_5eMT-102" target="kOrsUIQJCxHmHTs_5eMT-92" edge="1">
          <mxGeometry relative="1" as="geometry" />
        </mxCell>
        <mxCell id="kOrsUIQJCxHmHTs_5eMT-102" value="Tải lên hình ảnh" style="rhombus;whiteSpace=wrap;html=1;" parent="WIyWlLk6GJQsqaUBKTNV-1" vertex="1">
          <mxGeometry x="1680" y="515" width="140" height="80" as="geometry" />
        </mxCell>
        <mxCell id="kOrsUIQJCxHmHTs_5eMT-118" style="edgeStyle=orthogonalEdgeStyle;rounded=0;orthogonalLoop=1;jettySize=auto;html=1;entryX=0;entryY=0.5;entryDx=0;entryDy=0;" parent="WIyWlLk6GJQsqaUBKTNV-1" source="kOrsUIQJCxHmHTs_5eMT-104" target="kOrsUIQJCxHmHTs_5eMT-83" edge="1">
          <mxGeometry relative="1" as="geometry">
            <Array as="points">
              <mxPoint x="1550" y="248" />
            </Array>
          </mxGeometry>
        </mxCell>
        <mxCell id="kOrsUIQJCxHmHTs_5eMT-104" value="Hệ thống báo thất bại" style="rounded=1;whiteSpace=wrap;html=1;" parent="WIyWlLk6GJQsqaUBKTNV-1" vertex="1">
          <mxGeometry x="1490" y="525" width="120" height="60" as="geometry" />
        </mxCell>
        <mxCell id="kOrsUIQJCxHmHTs_5eMT-112" style="edgeStyle=orthogonalEdgeStyle;rounded=0;orthogonalLoop=1;jettySize=auto;html=1;" parent="WIyWlLk6GJQsqaUBKTNV-1" source="kOrsUIQJCxHmHTs_5eMT-110" target="kOrsUIQJCxHmHTs_5eMT-92" edge="1">
          <mxGeometry relative="1" as="geometry" />
        </mxCell>
        <mxCell id="kOrsUIQJCxHmHTs_5eMT-110" value="Hệ thống đưa ra giao diện phiếu khảo sát" style="rounded=1;whiteSpace=wrap;html=1;" parent="WIyWlLk6GJQsqaUBKTNV-1" vertex="1">
          <mxGeometry x="1910" y="530" width="120" height="65" as="geometry" />
        </mxCell>
        <mxCell id="kOrsUIQJCxHmHTs_5eMT-114" value="Thành công" style="text;html=1;align=center;verticalAlign=middle;whiteSpace=wrap;rounded=0;" parent="WIyWlLk6GJQsqaUBKTNV-1" vertex="1">
          <mxGeometry x="1201" y="570" width="60" height="30" as="geometry" />
        </mxCell>
        <mxCell id="kOrsUIQJCxHmHTs_5eMT-115" value="Thành công" style="text;html=1;align=center;verticalAlign=middle;whiteSpace=wrap;rounded=0;" parent="WIyWlLk6GJQsqaUBKTNV-1" vertex="1">
          <mxGeometry x="1741" y="630" width="60" height="30" as="geometry" />
        </mxCell>
        <mxCell id="kOrsUIQJCxHmHTs_5eMT-117" value="Thất bại" style="text;html=1;align=center;verticalAlign=middle;whiteSpace=wrap;rounded=0;" parent="WIyWlLk6GJQsqaUBKTNV-1" vertex="1">
          <mxGeometry x="1620" y="530" width="60" height="30" as="geometry" />
        </mxCell>
        <mxCell id="pDXvO5JaxAVhMDaiB-b3-3" style="edgeStyle=orthogonalEdgeStyle;rounded=0;orthogonalLoop=1;jettySize=auto;html=1;exitX=1;exitY=0.5;exitDx=0;exitDy=0;" parent="WIyWlLk6GJQsqaUBKTNV-1" source="pDXvO5JaxAVhMDaiB-b3-0" edge="1">
          <mxGeometry relative="1" as="geometry">
            <mxPoint x="300.2941176470588" y="386.58823529411757" as="targetPoint" />
          </mxGeometry>
        </mxCell>
        <mxCell id="pDXvO5JaxAVhMDaiB-b3-6" style="edgeStyle=orthogonalEdgeStyle;rounded=0;orthogonalLoop=1;jettySize=auto;html=1;exitX=0.5;exitY=1;exitDx=0;exitDy=0;entryX=0.5;entryY=0;entryDx=0;entryDy=0;" parent="WIyWlLk6GJQsqaUBKTNV-1" source="pDXvO5JaxAVhMDaiB-b3-0" target="kOrsUIQJCxHmHTs_5eMT-3" edge="1">
          <mxGeometry relative="1" as="geometry" />
        </mxCell>
        <mxCell id="pDXvO5JaxAVhMDaiB-b3-0" value="Người dùng nhập dữ liệu cần thiết" style="rounded=1;whiteSpace=wrap;html=1;" parent="WIyWlLk6GJQsqaUBKTNV-1" vertex="1">
          <mxGeometry x="180" y="356" width="120" height="60" as="geometry" />
        </mxCell>
        <mxCell id="b8AEBiqrnyZJAso-wI-W-4" style="edgeStyle=orthogonalEdgeStyle;rounded=0;orthogonalLoop=1;jettySize=auto;html=1;exitX=0.5;exitY=1;exitDx=0;exitDy=0;" parent="WIyWlLk6GJQsqaUBKTNV-1" source="b8AEBiqrnyZJAso-wI-W-0" edge="1">
          <mxGeometry relative="1" as="geometry">
            <mxPoint x="338.1578947368421" y="-858.5789409436677" as="targetPoint" />
          </mxGeometry>
        </mxCell>
        <mxCell id="b8AEBiqrnyZJAso-wI-W-0" value="&lt;font style=&quot;vertical-align: inherit;&quot;&gt;&lt;font style=&quot;vertical-align: inherit;&quot;&gt;Giao diện đăng ký, đăng nhập&lt;/font&gt;&lt;/font&gt;" style="ellipse;whiteSpace=wrap;html=1;" parent="WIyWlLk6GJQsqaUBKTNV-1" vertex="1">
          <mxGeometry x="273" y="-996" width="130" height="82" as="geometry" />
        </mxCell>
        <mxCell id="b8AEBiqrnyZJAso-wI-W-5" style="edgeStyle=orthogonalEdgeStyle;rounded=0;orthogonalLoop=1;jettySize=auto;html=1;exitX=0.5;exitY=1;exitDx=0;exitDy=0;" parent="WIyWlLk6GJQsqaUBKTNV-1" source="b8AEBiqrnyZJAso-wI-W-1" edge="1">
          <mxGeometry relative="1" as="geometry">
            <mxPoint x="338.1578947368421" y="-760.8947432668585" as="targetPoint" />
          </mxGeometry>
        </mxCell>
        <mxCell id="b8AEBiqrnyZJAso-wI-W-1" value="&lt;font style=&quot;vertical-align: inherit;&quot;&gt;&lt;font style=&quot;vertical-align: inherit;&quot;&gt;Người dùng đăng nhập&lt;/font&gt;&lt;/font&gt;" style="rounded=1;whiteSpace=wrap;html=1;" parent="WIyWlLk6GJQsqaUBKTNV-1" vertex="1">
          <mxGeometry x="223.5" y="-858" width="229" height="46" as="geometry" />
        </mxCell>
        <mxCell id="b8AEBiqrnyZJAso-wI-W-6" style="edgeStyle=orthogonalEdgeStyle;rounded=0;orthogonalLoop=1;jettySize=auto;html=1;exitX=0.5;exitY=1;exitDx=0;exitDy=0;entryX=0.5;entryY=0;entryDx=0;entryDy=0;" parent="WIyWlLk6GJQsqaUBKTNV-1" source="b8AEBiqrnyZJAso-wI-W-2" target="b8AEBiqrnyZJAso-wI-W-3" edge="1">
          <mxGeometry relative="1" as="geometry" />
        </mxCell>
        <mxCell id="b8AEBiqrnyZJAso-wI-W-2" value="&lt;font style=&quot;vertical-align: inherit;&quot;&gt;&lt;font style=&quot;vertical-align: inherit;&quot;&gt;Hệ thống hiển thị màn hình chính&amp;nbsp;&lt;/font&gt;&lt;/font&gt;" style="rounded=1;whiteSpace=wrap;html=1;" parent="WIyWlLk6GJQsqaUBKTNV-1" vertex="1">
          <mxGeometry x="208.5" y="-759" width="259" height="51" as="geometry" />
        </mxCell>
        <mxCell id="b8AEBiqrnyZJAso-wI-W-3" value="&lt;font style=&quot;vertical-align: inherit;&quot;&gt;&lt;font style=&quot;vertical-align: inherit;&quot;&gt;Hệ thống hiển thị các chức năng cơ bản&lt;/font&gt;&lt;/font&gt;" style="rounded=1;whiteSpace=wrap;html=1;" parent="WIyWlLk6GJQsqaUBKTNV-1" vertex="1">
          <mxGeometry x="194" y="-636" width="288" height="52" as="geometry" />
        </mxCell>
        <mxCell id="my-ikATKgfzty_80Ho4Q-6" style="edgeStyle=orthogonalEdgeStyle;rounded=0;orthogonalLoop=1;jettySize=auto;html=1;exitX=0.5;exitY=1;exitDx=0;exitDy=0;entryX=0.5;entryY=0;entryDx=0;entryDy=0;" parent="WIyWlLk6GJQsqaUBKTNV-1" source="my-ikATKgfzty_80Ho4Q-0" target="my-ikATKgfzty_80Ho4Q-1" edge="1">
          <mxGeometry relative="1" as="geometry" />
        </mxCell>
        <mxCell id="my-ikATKgfzty_80Ho4Q-0" value="&lt;font style=&quot;vertical-align: inherit;&quot;&gt;&lt;font style=&quot;vertical-align: inherit;&quot;&gt;Giao diện Kiểm tra da&lt;/font&gt;&lt;/font&gt;" style="ellipse;whiteSpace=wrap;html=1;" parent="WIyWlLk6GJQsqaUBKTNV-1" vertex="1">
          <mxGeometry x="1137" y="-1150" width="157" height="92" as="geometry" />
        </mxCell>
        <mxCell id="my-ikATKgfzty_80Ho4Q-7" style="edgeStyle=orthogonalEdgeStyle;rounded=0;orthogonalLoop=1;jettySize=auto;html=1;exitX=0.5;exitY=1;exitDx=0;exitDy=0;entryX=0.5;entryY=0;entryDx=0;entryDy=0;" parent="WIyWlLk6GJQsqaUBKTNV-1" source="my-ikATKgfzty_80Ho4Q-1" target="my-ikATKgfzty_80Ho4Q-2" edge="1">
          <mxGeometry relative="1" as="geometry" />
        </mxCell>
        <mxCell id="my-ikATKgfzty_80Ho4Q-1" value="&lt;font style=&quot;vertical-align: inherit;&quot;&gt;&lt;font style=&quot;vertical-align: inherit;&quot;&gt;Hệ thống hiển thị kết quả phân tích ta của người dùng&lt;/font&gt;&lt;/font&gt;" style="rounded=1;whiteSpace=wrap;html=1;" parent="WIyWlLk6GJQsqaUBKTNV-1" vertex="1">
          <mxGeometry x="1059" y="-1021" width="318" height="76" as="geometry" />
        </mxCell>
        <mxCell id="my-ikATKgfzty_80Ho4Q-8" style="edgeStyle=orthogonalEdgeStyle;rounded=0;orthogonalLoop=1;jettySize=auto;html=1;exitX=0.5;exitY=1;exitDx=0;exitDy=0;entryX=0.5;entryY=0;entryDx=0;entryDy=0;" parent="WIyWlLk6GJQsqaUBKTNV-1" source="my-ikATKgfzty_80Ho4Q-2" target="my-ikATKgfzty_80Ho4Q-3" edge="1">
          <mxGeometry relative="1" as="geometry" />
        </mxCell>
        <mxCell id="my-ikATKgfzty_80Ho4Q-2" value="&lt;font style=&quot;vertical-align: inherit;&quot;&gt;&lt;font style=&quot;vertical-align: inherit;&quot;&gt;Người dùng chọn chức năng xem đề xuất sản phẩm&lt;/font&gt;&lt;/font&gt;" style="rounded=1;whiteSpace=wrap;html=1;" parent="WIyWlLk6GJQsqaUBKTNV-1" vertex="1">
          <mxGeometry x="1051.5" y="-876" width="333" height="71" as="geometry" />
        </mxCell>
        <mxCell id="my-ikATKgfzty_80Ho4Q-11" style="edgeStyle=orthogonalEdgeStyle;rounded=0;orthogonalLoop=1;jettySize=auto;html=1;exitX=0.5;exitY=1;exitDx=0;exitDy=0;entryX=0.5;entryY=0;entryDx=0;entryDy=0;" parent="WIyWlLk6GJQsqaUBKTNV-1" source="my-ikATKgfzty_80Ho4Q-3" target="my-ikATKgfzty_80Ho4Q-4" edge="1">
          <mxGeometry relative="1" as="geometry" />
        </mxCell>
        <mxCell id="my-ikATKgfzty_80Ho4Q-12" style="edgeStyle=orthogonalEdgeStyle;rounded=0;orthogonalLoop=1;jettySize=auto;html=1;exitX=0;exitY=0.5;exitDx=0;exitDy=0;entryX=1;entryY=0.5;entryDx=0;entryDy=0;" parent="WIyWlLk6GJQsqaUBKTNV-1" source="my-ikATKgfzty_80Ho4Q-3" target="my-ikATKgfzty_80Ho4Q-5" edge="1">
          <mxGeometry relative="1" as="geometry" />
        </mxCell>
        <mxCell id="my-ikATKgfzty_80Ho4Q-3" value="&lt;font style=&quot;vertical-align: inherit;&quot;&gt;&lt;font style=&quot;vertical-align: inherit;&quot;&gt;Đề xuất&lt;/font&gt;&lt;/font&gt;" style="rhombus;whiteSpace=wrap;html=1;" parent="WIyWlLk6GJQsqaUBKTNV-1" vertex="1">
          <mxGeometry x="1150.5" y="-742" width="135" height="106" as="geometry" />
        </mxCell>
        <mxCell id="my-ikATKgfzty_80Ho4Q-4" value="&lt;font style=&quot;vertical-align: inherit;&quot;&gt;&lt;font style=&quot;vertical-align: inherit;&quot;&gt;Hệ thống hiênt thị các sản phẩm đề xuất&lt;/font&gt;&lt;/font&gt;" style="rounded=1;whiteSpace=wrap;html=1;" parent="WIyWlLk6GJQsqaUBKTNV-1" vertex="1">
          <mxGeometry x="1041.5" y="-577" width="353" height="75" as="geometry" />
        </mxCell>
        <mxCell id="my-ikATKgfzty_80Ho4Q-13" style="edgeStyle=orthogonalEdgeStyle;rounded=0;orthogonalLoop=1;jettySize=auto;html=1;exitX=0.5;exitY=0;exitDx=0;exitDy=0;entryX=0;entryY=0.5;entryDx=0;entryDy=0;" parent="WIyWlLk6GJQsqaUBKTNV-1" source="my-ikATKgfzty_80Ho4Q-5" target="my-ikATKgfzty_80Ho4Q-2" edge="1">
          <mxGeometry relative="1" as="geometry" />
        </mxCell>
        <mxCell id="my-ikATKgfzty_80Ho4Q-5" value="&lt;font style=&quot;vertical-align: inherit;&quot;&gt;&lt;font style=&quot;vertical-align: inherit;&quot;&gt;Hệ thống hiển thị xem đề xuất bị lỗi&lt;/font&gt;&lt;/font&gt;" style="rounded=1;whiteSpace=wrap;html=1;" parent="WIyWlLk6GJQsqaUBKTNV-1" vertex="1">
          <mxGeometry x="870" y="-719" width="142" height="60" as="geometry" />
        </mxCell>
        <mxCell id="my-ikATKgfzty_80Ho4Q-14" value="&lt;font style=&quot;vertical-align: inherit;&quot;&gt;&lt;font style=&quot;vertical-align: inherit;&quot;&gt;Thành công&lt;/font&gt;&lt;/font&gt;" style="text;html=1;align=center;verticalAlign=middle;whiteSpace=wrap;rounded=0;" parent="WIyWlLk6GJQsqaUBKTNV-1" vertex="1">
          <mxGeometry x="1251" y="-625" width="84" height="30" as="geometry" />
        </mxCell>
        <mxCell id="my-ikATKgfzty_80Ho4Q-15" value="&lt;font style=&quot;vertical-align: inherit;&quot;&gt;&lt;font style=&quot;vertical-align: inherit;&quot;&gt;Thất bại&lt;/font&gt;&lt;/font&gt;" style="text;html=1;align=center;verticalAlign=middle;whiteSpace=wrap;rounded=0;" parent="WIyWlLk6GJQsqaUBKTNV-1" vertex="1">
          <mxGeometry x="1045" y="-733" width="73" height="30" as="geometry" />
        </mxCell>
        <mxCell id="my-ikATKgfzty_80Ho4Q-24" style="edgeStyle=orthogonalEdgeStyle;rounded=0;orthogonalLoop=1;jettySize=auto;html=1;exitX=0.5;exitY=1;exitDx=0;exitDy=0;entryX=0.5;entryY=0;entryDx=0;entryDy=0;" parent="WIyWlLk6GJQsqaUBKTNV-1" source="my-ikATKgfzty_80Ho4Q-16" target="my-ikATKgfzty_80Ho4Q-17" edge="1">
          <mxGeometry relative="1" as="geometry" />
        </mxCell>
        <mxCell id="my-ikATKgfzty_80Ho4Q-16" value="Giao hiện màn hình chính" style="ellipse;whiteSpace=wrap;html=1;" parent="WIyWlLk6GJQsqaUBKTNV-1" vertex="1">
          <mxGeometry x="2005" y="-1155" width="137" height="91" as="geometry" />
        </mxCell>
        <mxCell id="ZN63igWLfFrBOJlOpnCa-3" style="edgeStyle=orthogonalEdgeStyle;rounded=0;orthogonalLoop=1;jettySize=auto;html=1;exitX=0.5;exitY=1;exitDx=0;exitDy=0;entryX=0.5;entryY=0;entryDx=0;entryDy=0;" edge="1" parent="WIyWlLk6GJQsqaUBKTNV-1" source="my-ikATKgfzty_80Ho4Q-17" target="ZN63igWLfFrBOJlOpnCa-1">
          <mxGeometry relative="1" as="geometry" />
        </mxCell>
        <mxCell id="ZN63igWLfFrBOJlOpnCa-7" style="edgeStyle=orthogonalEdgeStyle;rounded=0;orthogonalLoop=1;jettySize=auto;html=1;exitX=0.5;exitY=1;exitDx=0;exitDy=0;entryX=0.5;entryY=0;entryDx=0;entryDy=0;" edge="1" parent="WIyWlLk6GJQsqaUBKTNV-1" source="my-ikATKgfzty_80Ho4Q-17" target="ZN63igWLfFrBOJlOpnCa-0">
          <mxGeometry relative="1" as="geometry" />
        </mxCell>
        <mxCell id="my-ikATKgfzty_80Ho4Q-17" value="Người dùng chọn chức năng liên hệ với chuyên gia" style="rounded=1;whiteSpace=wrap;html=1;" parent="WIyWlLk6GJQsqaUBKTNV-1" vertex="1">
          <mxGeometry x="1949.25" y="-1029" width="248.5" height="60" as="geometry" />
        </mxCell>
        <mxCell id="ZN63igWLfFrBOJlOpnCa-5" style="edgeStyle=orthogonalEdgeStyle;rounded=0;orthogonalLoop=1;jettySize=auto;html=1;exitX=0.5;exitY=1;exitDx=0;exitDy=0;entryX=0.5;entryY=0;entryDx=0;entryDy=0;" edge="1" parent="WIyWlLk6GJQsqaUBKTNV-1" source="my-ikATKgfzty_80Ho4Q-18" target="my-ikATKgfzty_80Ho4Q-19">
          <mxGeometry relative="1" as="geometry" />
        </mxCell>
        <mxCell id="my-ikATKgfzty_80Ho4Q-18" value="Hệ thống hiển thị các câu hỏi để giới hạn phạm vi tìm kiếm" style="rounded=1;whiteSpace=wrap;html=1;" parent="WIyWlLk6GJQsqaUBKTNV-1" vertex="1">
          <mxGeometry x="2077" y="-812" width="211" height="73" as="geometry" />
        </mxCell>
        <mxCell id="ZN63igWLfFrBOJlOpnCa-6" style="edgeStyle=orthogonalEdgeStyle;rounded=0;orthogonalLoop=1;jettySize=auto;html=1;exitX=0.5;exitY=1;exitDx=0;exitDy=0;entryX=0.5;entryY=0;entryDx=0;entryDy=0;" edge="1" parent="WIyWlLk6GJQsqaUBKTNV-1" source="my-ikATKgfzty_80Ho4Q-19" target="my-ikATKgfzty_80Ho4Q-21">
          <mxGeometry relative="1" as="geometry" />
        </mxCell>
        <mxCell id="my-ikATKgfzty_80Ho4Q-19" value="Người dùng trả lời các câu hỏi" style="rounded=1;whiteSpace=wrap;html=1;" parent="WIyWlLk6GJQsqaUBKTNV-1" vertex="1">
          <mxGeometry x="2073.5" y="-696" width="218" height="60" as="geometry" />
        </mxCell>
        <mxCell id="my-ikATKgfzty_80Ho4Q-20" value="Hệ thống kết nối hoặc hiển thị thông tin của chuyên gia" style="rounded=1;whiteSpace=wrap;html=1;" parent="WIyWlLk6GJQsqaUBKTNV-1" vertex="1">
          <mxGeometry x="1933.25" y="-452" width="241" height="60" as="geometry" />
        </mxCell>
        <mxCell id="ZN63igWLfFrBOJlOpnCa-9" style="edgeStyle=orthogonalEdgeStyle;rounded=0;orthogonalLoop=1;jettySize=auto;html=1;exitX=0.5;exitY=1;exitDx=0;exitDy=0;entryX=0.5;entryY=0;entryDx=0;entryDy=0;" edge="1" parent="WIyWlLk6GJQsqaUBKTNV-1" source="my-ikATKgfzty_80Ho4Q-21" target="my-ikATKgfzty_80Ho4Q-20">
          <mxGeometry relative="1" as="geometry" />
        </mxCell>
        <mxCell id="ZN63igWLfFrBOJlOpnCa-10" style="edgeStyle=orthogonalEdgeStyle;rounded=0;orthogonalLoop=1;jettySize=auto;html=1;exitX=0;exitY=0.5;exitDx=0;exitDy=0;entryX=0.5;entryY=1;entryDx=0;entryDy=0;" edge="1" parent="WIyWlLk6GJQsqaUBKTNV-1" source="my-ikATKgfzty_80Ho4Q-21" target="my-ikATKgfzty_80Ho4Q-23">
          <mxGeometry relative="1" as="geometry" />
        </mxCell>
        <mxCell id="my-ikATKgfzty_80Ho4Q-21" value="Tìm kiếm và liên hệ" style="rhombus;whiteSpace=wrap;html=1;" parent="WIyWlLk6GJQsqaUBKTNV-1" vertex="1">
          <mxGeometry x="1993" y="-584" width="121.5" height="92" as="geometry" />
        </mxCell>
        <mxCell id="ZN63igWLfFrBOJlOpnCa-11" style="edgeStyle=orthogonalEdgeStyle;rounded=0;orthogonalLoop=1;jettySize=auto;html=1;exitX=0.5;exitY=0;exitDx=0;exitDy=0;entryX=0;entryY=0.5;entryDx=0;entryDy=0;" edge="1" parent="WIyWlLk6GJQsqaUBKTNV-1" source="my-ikATKgfzty_80Ho4Q-23" target="my-ikATKgfzty_80Ho4Q-17">
          <mxGeometry relative="1" as="geometry" />
        </mxCell>
        <mxCell id="my-ikATKgfzty_80Ho4Q-23" value="Hệ thống thông báo lí do thất bại" style="rounded=1;whiteSpace=wrap;html=1;" parent="WIyWlLk6GJQsqaUBKTNV-1" vertex="1">
          <mxGeometry x="1688" y="-756" width="138" height="60" as="geometry" />
        </mxCell>
        <mxCell id="my-ikATKgfzty_80Ho4Q-31" value="Thất bại" style="text;html=1;align=center;verticalAlign=middle;whiteSpace=wrap;rounded=0;" parent="WIyWlLk6GJQsqaUBKTNV-1" vertex="1">
          <mxGeometry x="1846" y="-577" width="64" height="30" as="geometry" />
        </mxCell>
        <mxCell id="my-ikATKgfzty_80Ho4Q-32" value="Thành công" style="text;html=1;align=center;verticalAlign=middle;whiteSpace=wrap;rounded=0;" parent="WIyWlLk6GJQsqaUBKTNV-1" vertex="1">
          <mxGeometry x="2088" y="-495" width="80" height="30" as="geometry" />
        </mxCell>
        <mxCell id="ZN63igWLfFrBOJlOpnCa-8" style="edgeStyle=orthogonalEdgeStyle;rounded=0;orthogonalLoop=1;jettySize=auto;html=1;exitX=0.5;exitY=1;exitDx=0;exitDy=0;entryX=0.5;entryY=0;entryDx=0;entryDy=0;" edge="1" parent="WIyWlLk6GJQsqaUBKTNV-1" source="ZN63igWLfFrBOJlOpnCa-0" target="my-ikATKgfzty_80Ho4Q-21">
          <mxGeometry relative="1" as="geometry" />
        </mxCell>
        <mxCell id="ZN63igWLfFrBOJlOpnCa-0" value="&lt;font style=&quot;vertical-align: inherit;&quot;&gt;&lt;font style=&quot;vertical-align: inherit;&quot;&gt;Trò chuyện trực tuyến qua web&lt;/font&gt;&lt;/font&gt;" style="rounded=1;whiteSpace=wrap;html=1;" vertex="1" parent="WIyWlLk6GJQsqaUBKTNV-1">
          <mxGeometry x="1892" y="-911" width="120" height="60" as="geometry" />
        </mxCell>
        <mxCell id="ZN63igWLfFrBOJlOpnCa-4" style="edgeStyle=orthogonalEdgeStyle;rounded=0;orthogonalLoop=1;jettySize=auto;html=1;exitX=0.5;exitY=1;exitDx=0;exitDy=0;entryX=0.5;entryY=0;entryDx=0;entryDy=0;" edge="1" parent="WIyWlLk6GJQsqaUBKTNV-1" source="ZN63igWLfFrBOJlOpnCa-1" target="my-ikATKgfzty_80Ho4Q-18">
          <mxGeometry relative="1" as="geometry" />
        </mxCell>
        <mxCell id="ZN63igWLfFrBOJlOpnCa-1" value="Đặt lịch gặp trực tiếp" style="rounded=1;whiteSpace=wrap;html=1;" vertex="1" parent="WIyWlLk6GJQsqaUBKTNV-1">
          <mxGeometry x="2122.5" y="-911" width="120" height="60" as="geometry" />
        </mxCell>
      </root>
    </mxGraphModel>
  </diagram>
  <diagram id="T2uGljgiKo4IrF8F_Pgf" name="Trang-2">
    <mxGraphModel dx="1235" dy="655" grid="0" gridSize="10" guides="1" tooltips="1" connect="1" arrows="1" fold="1" page="1" pageScale="1" pageWidth="827" pageHeight="1169" math="0" shadow="0">
      <root>
        <mxCell id="0" />
        <mxCell id="1" parent="0" />
        <mxCell id="YpgRPv8uAcZsOeOXB4DE-4" style="edgeStyle=orthogonalEdgeStyle;rounded=0;orthogonalLoop=1;jettySize=auto;html=1;exitX=0.5;exitY=1;exitDx=0;exitDy=0;entryX=0.5;entryY=0;entryDx=0;entryDy=0;" edge="1" parent="1" source="YpgRPv8uAcZsOeOXB4DE-1" target="YpgRPv8uAcZsOeOXB4DE-2">
          <mxGeometry relative="1" as="geometry" />
        </mxCell>
        <mxCell id="YpgRPv8uAcZsOeOXB4DE-1" value="Giao diện màn hình chính" style="ellipse;whiteSpace=wrap;html=1;" vertex="1" parent="1">
          <mxGeometry x="300" y="10" width="120" height="80" as="geometry" />
        </mxCell>
        <mxCell id="YpgRPv8uAcZsOeOXB4DE-7" style="edgeStyle=orthogonalEdgeStyle;rounded=0;orthogonalLoop=1;jettySize=auto;html=1;exitX=0.5;exitY=1;exitDx=0;exitDy=0;entryX=0.5;entryY=0;entryDx=0;entryDy=0;" edge="1" parent="1" source="YpgRPv8uAcZsOeOXB4DE-2" target="YpgRPv8uAcZsOeOXB4DE-6">
          <mxGeometry relative="1" as="geometry" />
        </mxCell>
        <mxCell id="YpgRPv8uAcZsOeOXB4DE-2" value="Người dùng chọn chức năng Cẩm nang" style="rounded=1;whiteSpace=wrap;html=1;" vertex="1" parent="1">
          <mxGeometry x="280" y="150" width="160" height="60" as="geometry" />
        </mxCell>
        <mxCell id="YpgRPv8uAcZsOeOXB4DE-3" value="Hệ thống chuyển đến trang Cẩm nang" style="rounded=1;whiteSpace=wrap;html=1;" vertex="1" parent="1">
          <mxGeometry x="282" y="400" width="156" height="60" as="geometry" />
        </mxCell>
        <mxCell id="YpgRPv8uAcZsOeOXB4DE-8" style="edgeStyle=orthogonalEdgeStyle;rounded=0;orthogonalLoop=1;jettySize=auto;html=1;exitX=0.5;exitY=1;exitDx=0;exitDy=0;entryX=0.5;entryY=0;entryDx=0;entryDy=0;" edge="1" parent="1" source="YpgRPv8uAcZsOeOXB4DE-6" target="YpgRPv8uAcZsOeOXB4DE-3">
          <mxGeometry relative="1" as="geometry" />
        </mxCell>
        <mxCell id="YpgRPv8uAcZsOeOXB4DE-10" style="edgeStyle=orthogonalEdgeStyle;rounded=0;orthogonalLoop=1;jettySize=auto;html=1;exitX=0;exitY=0.5;exitDx=0;exitDy=0;entryX=1;entryY=0.5;entryDx=0;entryDy=0;" edge="1" parent="1" source="YpgRPv8uAcZsOeOXB4DE-6" target="YpgRPv8uAcZsOeOXB4DE-9">
          <mxGeometry relative="1" as="geometry" />
        </mxCell>
        <mxCell id="YpgRPv8uAcZsOeOXB4DE-6" value="Chuyển trang" style="rhombus;whiteSpace=wrap;html=1;" vertex="1" parent="1">
          <mxGeometry x="320" y="260" width="80" height="80" as="geometry" />
        </mxCell>
        <mxCell id="YpgRPv8uAcZsOeOXB4DE-11" style="edgeStyle=orthogonalEdgeStyle;rounded=0;orthogonalLoop=1;jettySize=auto;html=1;exitX=0.5;exitY=0;exitDx=0;exitDy=0;entryX=0;entryY=0.5;entryDx=0;entryDy=0;" edge="1" parent="1" source="YpgRPv8uAcZsOeOXB4DE-9" target="YpgRPv8uAcZsOeOXB4DE-1">
          <mxGeometry relative="1" as="geometry" />
        </mxCell>
        <mxCell id="YpgRPv8uAcZsOeOXB4DE-9" value="Hệ thống thông báo lỗi" style="rounded=1;whiteSpace=wrap;html=1;" vertex="1" parent="1">
          <mxGeometry x="100" y="270" width="120" height="60" as="geometry" />
        </mxCell>
        <mxCell id="YpgRPv8uAcZsOeOXB4DE-12" value="Text" style="text;html=1;align=center;verticalAlign=middle;whiteSpace=wrap;rounded=0;" vertex="1" parent="1">
          <mxGeometry x="330" y="190" width="60" height="30" as="geometry" />
        </mxCell>
        <mxCell id="YpgRPv8uAcZsOeOXB4DE-13" value="Thành công" style="text;html=1;align=center;verticalAlign=middle;whiteSpace=wrap;rounded=0;" vertex="1" parent="1">
          <mxGeometry x="360" y="350" width="80" height="30" as="geometry" />
        </mxCell>
        <mxCell id="YpgRPv8uAcZsOeOXB4DE-14" value="Thất bại" style="text;html=1;align=center;verticalAlign=middle;whiteSpace=wrap;rounded=0;" vertex="1" parent="1">
          <mxGeometry x="240" y="260" width="60" height="30" as="geometry" />
        </mxCell>
        <mxCell id="YpgRPv8uAcZsOeOXB4DE-23" style="edgeStyle=orthogonalEdgeStyle;rounded=0;orthogonalLoop=1;jettySize=auto;html=1;exitX=0.5;exitY=1;exitDx=0;exitDy=0;" edge="1" parent="1" source="YpgRPv8uAcZsOeOXB4DE-15" target="YpgRPv8uAcZsOeOXB4DE-17">
          <mxGeometry relative="1" as="geometry" />
        </mxCell>
        <mxCell id="YpgRPv8uAcZsOeOXB4DE-15" value="Giao diện trang chủ" style="ellipse;whiteSpace=wrap;html=1;" vertex="1" parent="1">
          <mxGeometry x="220" y="508" width="120" height="80" as="geometry" />
        </mxCell>
        <mxCell id="YpgRPv8uAcZsOeOXB4DE-24" style="edgeStyle=orthogonalEdgeStyle;rounded=0;orthogonalLoop=1;jettySize=auto;html=1;exitX=0.5;exitY=1;exitDx=0;exitDy=0;entryX=0.5;entryY=0;entryDx=0;entryDy=0;" edge="1" parent="1" source="YpgRPv8uAcZsOeOXB4DE-16" target="YpgRPv8uAcZsOeOXB4DE-18">
          <mxGeometry relative="1" as="geometry" />
        </mxCell>
        <mxCell id="YpgRPv8uAcZsOeOXB4DE-16" value="Sản phẩm gợi ý sau phân tích" style="ellipse;whiteSpace=wrap;html=1;" vertex="1" parent="1">
          <mxGeometry x="394" y="508" width="120" height="80" as="geometry" />
        </mxCell>
        <mxCell id="YpgRPv8uAcZsOeOXB4DE-26" style="edgeStyle=orthogonalEdgeStyle;rounded=0;orthogonalLoop=1;jettySize=auto;html=1;exitX=0.5;exitY=1;exitDx=0;exitDy=0;entryX=0.5;entryY=0;entryDx=0;entryDy=0;" edge="1" parent="1" source="YpgRPv8uAcZsOeOXB4DE-17" target="YpgRPv8uAcZsOeOXB4DE-18">
          <mxGeometry relative="1" as="geometry" />
        </mxCell>
        <mxCell id="YpgRPv8uAcZsOeOXB4DE-17" value="Người dùng chọn chức năng Sản phẩm" style="rounded=1;whiteSpace=wrap;html=1;" vertex="1" parent="1">
          <mxGeometry x="220" y="647" width="120" height="60" as="geometry" />
        </mxCell>
        <mxCell id="YpgRPv8uAcZsOeOXB4DE-27" style="edgeStyle=orthogonalEdgeStyle;rounded=0;orthogonalLoop=1;jettySize=auto;html=1;exitX=0.5;exitY=1;exitDx=0;exitDy=0;entryX=0.5;entryY=0;entryDx=0;entryDy=0;" edge="1" parent="1" source="YpgRPv8uAcZsOeOXB4DE-18" target="YpgRPv8uAcZsOeOXB4DE-19">
          <mxGeometry relative="1" as="geometry" />
        </mxCell>
        <mxCell id="YpgRPv8uAcZsOeOXB4DE-18" value="Hệ thống hiển thị các sản phẩm" style="rounded=1;whiteSpace=wrap;html=1;" vertex="1" parent="1">
          <mxGeometry x="304" y="751" width="120" height="60" as="geometry" />
        </mxCell>
        <mxCell id="YpgRPv8uAcZsOeOXB4DE-28" style="edgeStyle=orthogonalEdgeStyle;rounded=0;orthogonalLoop=1;jettySize=auto;html=1;exitX=0.5;exitY=1;exitDx=0;exitDy=0;entryX=0.5;entryY=0;entryDx=0;entryDy=0;" edge="1" parent="1" source="YpgRPv8uAcZsOeOXB4DE-19" target="YpgRPv8uAcZsOeOXB4DE-20">
          <mxGeometry relative="1" as="geometry" />
        </mxCell>
        <mxCell id="YpgRPv8uAcZsOeOXB4DE-19" value="Người dùng có thể chọn sản phẩm cần xem hoặc mua" style="rounded=1;whiteSpace=wrap;html=1;" vertex="1" parent="1">
          <mxGeometry x="268" y="843" width="213" height="60" as="geometry" />
        </mxCell>
        <mxCell id="YpgRPv8uAcZsOeOXB4DE-29" style="edgeStyle=orthogonalEdgeStyle;rounded=0;orthogonalLoop=1;jettySize=auto;html=1;exitX=0.5;exitY=1;exitDx=0;exitDy=0;entryX=0.5;entryY=0;entryDx=0;entryDy=0;" edge="1" parent="1" source="YpgRPv8uAcZsOeOXB4DE-20" target="YpgRPv8uAcZsOeOXB4DE-21">
          <mxGeometry relative="1" as="geometry" />
        </mxCell>
        <mxCell id="YpgRPv8uAcZsOeOXB4DE-30" style="edgeStyle=orthogonalEdgeStyle;rounded=0;orthogonalLoop=1;jettySize=auto;html=1;exitX=0;exitY=0.5;exitDx=0;exitDy=0;entryX=1;entryY=0.5;entryDx=0;entryDy=0;" edge="1" parent="1" source="YpgRPv8uAcZsOeOXB4DE-20" target="YpgRPv8uAcZsOeOXB4DE-22">
          <mxGeometry relative="1" as="geometry" />
        </mxCell>
        <mxCell id="YpgRPv8uAcZsOeOXB4DE-20" value="Chuyển trang web" style="rhombus;whiteSpace=wrap;html=1;" vertex="1" parent="1">
          <mxGeometry x="325" y="933" width="99" height="80" as="geometry" />
        </mxCell>
        <mxCell id="YpgRPv8uAcZsOeOXB4DE-21" value="Đến các trang bán hàng" style="rounded=1;whiteSpace=wrap;html=1;" vertex="1" parent="1">
          <mxGeometry x="314.5" y="1047" width="120" height="60" as="geometry" />
        </mxCell>
        <mxCell id="YpgRPv8uAcZsOeOXB4DE-31" style="edgeStyle=orthogonalEdgeStyle;rounded=0;orthogonalLoop=1;jettySize=auto;html=1;exitX=0.5;exitY=0;exitDx=0;exitDy=0;entryX=0;entryY=0.5;entryDx=0;entryDy=0;" edge="1" parent="1" source="YpgRPv8uAcZsOeOXB4DE-22" target="YpgRPv8uAcZsOeOXB4DE-18">
          <mxGeometry relative="1" as="geometry" />
        </mxCell>
        <mxCell id="YpgRPv8uAcZsOeOXB4DE-22" value="Hệ thống thông báo lỗi" style="rounded=1;whiteSpace=wrap;html=1;" vertex="1" parent="1">
          <mxGeometry x="122" y="943" width="120" height="60" as="geometry" />
        </mxCell>
        <mxCell id="YpgRPv8uAcZsOeOXB4DE-32" value="Thành công" style="text;html=1;align=center;verticalAlign=middle;whiteSpace=wrap;rounded=0;" vertex="1" parent="1">
          <mxGeometry x="380" y="1013" width="74" height="30" as="geometry" />
        </mxCell>
        <mxCell id="YpgRPv8uAcZsOeOXB4DE-33" value="Thất bại" style="text;html=1;align=center;verticalAlign=middle;whiteSpace=wrap;rounded=0;" vertex="1" parent="1">
          <mxGeometry x="257" y="935" width="60" height="30" as="geometry" />
        </mxCell>
      </root>
    </mxGraphModel>
  </diagram>
</mxfile>
